<svg class="img-fluid" id="outputsvg" xmlns="http://www.w3.org/2000/svg" style="transform: matrix(1, 0, 0, 1, 0, 0); transform-origin: 50% 50%; cursor: move; transition: transform 200ms ease-in-out;" width="1636" height="1476" viewBox="0 0 16360 14760"><g id="l5HUw25SWL62aPFarb4eUNV" fill="transparent" style="transform: none;"><g style="transform: none;"><path id="pRHhelJfo" d="M0 7380 l0 -7380 8180 0 8180 0 0 7380 0 7380 -8180 0 -8180 0 0 -7380z m8700 6390 c0 -5 20 -10 44 -10 24 0 110 -7 192 -16 98 -11 185 -14 257 -10 59 4 107 3 107 -2 0 -15 193 -45 253 -40 32 3 57 2 57 -2 0 -10 149 -40 200 -40 25 0 79 -9 120 -20 41 -11 93 -20 116 -20 22 0 67 -9 99 -20 32 -11 75 -20 95 -20 21 0 57 -9 81 -20 24 -11 54 -20 67 -20 13 0 44 -8 70 -19 26 -10 65 -23 87 -29 42 -11 117 -35 175 -57 19 -7 60 -21 90 -32 30 -11 71 -25 90 -32 19 -7 53 -19 75 -27 22 -8 52 -21 67 -29 14 -8 31 -15 37 -15 10 0 167 -70 206 -92 11 -7 52 -28 90 -47 39 -19 73 -39 76 -44 3 -5 24 -18 46 -30 80 -44 149 -87 173 -110 14 -13 32 -26 40 -30 33 -16 133 -89 155 -113 6 -6 37 -31 70 -55 33 -24 84 -67 113 -96 29 -29 58 -53 63 -53 5 0 9 -4 9 -9 0 -5 45 -55 100 -110 55 -56 106 -114 115 -131 9 -16 20 -30 25 -30 6 0 10 -6 10 -13 0 -7 8 -20 18 -28 9 -9 37 -40 62 -69 25 -29 55 -65 67 -79 13 -14 23 -31 23 -36 0 -6 9 -16 20 -23 11 -7 20 -16 20 -22 0 -5 10 -20 23 -33 56 -59 97 -110 97 -122 0 -7 7 -15 15 -19 8 -3 15 -10 15 -17 0 -6 12 -23 28 -38 45 -44 102 -112 102 -122 0 -5 8 -17 18 -28 28 -31 86 -102 96 -118 4 -8 16 -23 25 -33 9 -9 25 -30 36 -45 34 -48 74 -99 90 -116 8 -9 15 -19 15 -22 0 -7 16 -27 72 -90 21 -23 41 -51 44 -62 4 -11 13 -27 21 -35 41 -44 83 -96 95 -119 13 -25 24 -40 62 -84 10 -12 22 -31 27 -42 17 -35 34 -59 62 -89 15 -16 27 -35 27 -42 0 -8 5 -14 10 -14 6 0 10 -6 10 -14 0 -7 10 -25 23 -39 52 -59 67 -79 67 -88 0 -6 4 -15 10 -22 47 -58 60 -77 65 -100 4 -15 11 -27 17 -27 5 0 14 -12 21 -27 13 -31 45 -81 64 -101 6 -6 15 -22 19 -34 7 -22 38 -70 62 -96 6 -7 12 -22 12 -33 0 -10 9 -27 20 -36 11 -10 20 -25 20 -34 0 -9 7 -22 16 -30 16 -13 24 -26 89 -155 21 -44 42 -81 46 -84 3 -3 12 -22 18 -42 7 -21 17 -38 22 -38 5 0 9 -10 9 -23 0 -12 9 -30 20 -40 11 -9 20 -27 20 -39 0 -13 9 -34 20 -48 11 -14 20 -34 20 -46 0 -11 9 -30 20 -42 11 -12 20 -32 20 -45 0 -14 7 -30 15 -37 8 -7 17 -27 21 -46 3 -18 15 -43 25 -55 10 -12 19 -34 19 -48 0 -14 9 -37 20 -51 11 -14 20 -35 20 -48 0 -12 9 -40 20 -62 11 -22 20 -47 20 -57 0 -10 9 -33 20 -51 11 -18 20 -45 20 -60 0 -15 9 -42 20 -60 11 -18 20 -42 20 -54 0 -32 22 -88 35 -88 7 0 10 -12 7 -31 -6 -38 17 -109 34 -109 9 0 11 -10 7 -35 -6 -40 14 -125 32 -131 7 -3 10 -17 7 -36 -6 -43 18 -138 35 -138 12 0 13 -11 8 -54 -9 -66 11 -166 33 -166 12 0 14 -14 8 -86 -8 -96 8 -232 30 -250 18 -15 19 -704 0 -704 -19 0 -39 -145 -31 -224 6 -55 5 -66 -8 -66 -20 0 -41 -88 -34 -140 3 -25 1 -40 -7 -43 -15 -6 -36 -73 -36 -114 0 -16 -9 -48 -20 -71 -11 -22 -20 -55 -20 -71 0 -17 -9 -45 -20 -63 -11 -18 -20 -44 -20 -58 0 -14 -11 -47 -25 -74 -14 -27 -25 -54 -25 -61 0 -6 -16 -49 -36 -95 -20 -47 -40 -98 -44 -113 -5 -16 -13 -34 -18 -40 -4 -7 -18 -39 -31 -72 -13 -33 -41 -96 -62 -140 -70 -148 -129 -277 -129 -281 0 -5 -102 -219 -140 -294 -285 -562 -407 -799 -493 -960 -53 -100 -216 -381 -319 -550 -27 -44 -129 -197 -180 -270 -21 -30 -55 -80 -76 -110 -52 -77 -310 -398 -401 -500 -134 -149 -357 -368 -475 -465 -26 -22 -76 -63 -110 -91 -141 -118 -365 -277 -516 -368 -25 -15 -52 -31 -60 -36 -99 -60 -531 -280 -580 -295 -14 -4 -34 -14 -45 -21 -11 -8 -26 -14 -35 -14 -8 0 -28 -7 -45 -16 -16 -9 -48 -22 -70 -29 -22 -7 -71 -25 -110 -40 -91 -34 -233 -80 -420 -136 -33 -10 -90 -27 -126 -38 -36 -12 -74 -21 -85 -21 -10 -1 -37 -8 -59 -16 -22 -9 -67 -22 -100 -29 -33 -8 -87 -21 -120 -30 -211 -55 -292 -75 -352 -85 -29 -4 -74 -15 -100 -23 -26 -9 -68 -18 -93 -22 -25 -4 -65 -12 -90 -20 -25 -7 -72 -16 -104 -20 -33 -4 -71 -11 -85 -16 -14 -6 -61 -15 -106 -20 -44 -6 -102 -16 -130 -24 -27 -7 -81 -16 -118 -20 -38 -3 -94 -12 -125 -20 -31 -8 -77 -15 -102 -15 -25 0 -74 -7 -110 -15 -36 -8 -146 -22 -245 -30 -99 -8 -223 -19 -275 -25 -249 -26 -766 1 -961 51 -42 10 -88 19 -103 19 -14 0 -49 9 -78 20 -29 11 -65 20 -80 20 -14 0 -47 9 -73 20 -26 11 -55 20 -66 20 -11 0 -37 9 -59 20 -22 11 -48 20 -58 20 -11 0 -31 9 -45 20 -14 11 -35 20 -47 20 -12 0 -34 6 -48 14 -15 8 -56 27 -92 41 -70 29 -133 57 -191 87 -20 10 -44 18 -52 18 -8 0 -17 3 -19 8 -1 4 -55 34 -118 66 -137 70 -170 89 -241 139 -29 20 -59 37 -66 37 -7 0 -13 4 -13 8 0 5 -15 16 -32 25 -28 14 -106 66 -143 95 -5 4 -32 22 -60 40 -74 48 -83 54 -129 88 -22 17 -67 47 -98 68 -32 21 -58 41 -58 45 0 4 -11 13 -25 19 -14 7 -31 16 -38 22 -7 5 -40 32 -74 60 -34 27 -66 50 -70 50 -5 0 -14 9 -21 20 -7 11 -18 20 -25 20 -7 0 -20 8 -29 18 -8 9 -35 33 -58 52 -23 19 -54 45 -69 57 -14 13 -29 23 -33 23 -5 0 -16 8 -26 18 -15 15 -123 103 -232 189 -19 16 -55 46 -80 68 -25 22 -58 49 -74 60 -15 11 -37 28 -49 39 -108 93 -186 156 -192 156 -5 0 -15 7 -24 15 -78 73 -186 165 -252 215 -49 36 -509 496 -509 509 0 6 -9 15 -20 21 -11 6 -20 17 -20 25 0 8 -9 20 -20 27 -11 7 -20 16 -20 21 0 6 -84 115 -99 127 -3 3 -12 17 -20 32 -8 15 -29 44 -48 64 -18 20 -33 40 -33 45 0 14 -61 99 -71 99 -5 0 -9 8 -9 17 0 19 -48 93 -67 106 -7 4 -13 17 -13 27 0 11 -9 29 -20 40 -11 11 -20 26 -20 34 0 7 -8 24 -19 37 -10 13 -21 34 -25 47 -4 12 -12 22 -17 22 -5 0 -9 6 -9 14 0 7 -11 29 -24 49 -13 19 -27 48 -31 65 -3 17 -13 33 -21 36 -8 3 -14 16 -14 30 0 14 -7 32 -16 40 -9 9 -20 33 -26 53 -5 20 -16 43 -24 50 -8 8 -17 26 -20 41 -3 15 -15 45 -25 68 -10 22 -19 48 -19 58 0 10 -6 24 -14 31 -7 8 -16 36 -20 64 -4 28 -10 51 -15 51 -13 0 -31 49 -31 85 0 19 -4 35 -9 35 -12 0 -31 56 -31 91 0 16 -9 43 -20 61 -12 21 -20 51 -20 81 0 26 -4 47 -8 47 -12 0 -32 62 -32 102 0 19 -8 50 -17 69 -9 19 -19 61 -21 94 -2 33 -10 75 -19 94 -8 19 -19 73 -23 120 -5 47 -14 102 -20 121 -7 19 -16 87 -20 150 -4 63 -13 135 -19 160 -7 25 -16 117 -20 205 -5 88 -16 218 -25 289 -22 180 -21 1001 1 1121 8 44 18 130 23 190 5 61 16 135 24 165 9 30 16 74 16 96 0 23 7 61 16 85 8 24 19 71 24 104 10 68 34 168 57 235 8 25 18 65 23 90 4 25 15 62 24 82 9 21 16 46 16 56 0 11 9 41 19 68 24 63 79 225 96 285 7 26 20 60 29 77 9 17 16 37 16 44 0 12 27 86 55 153 7 17 25 64 40 105 15 41 31 83 36 92 4 9 24 56 43 105 19 48 41 102 50 118 9 17 16 38 16 47 0 9 4 19 9 23 5 3 15 22 22 43 11 33 59 142 109 247 10 22 46 99 80 170 34 72 66 137 71 145 5 8 14 26 19 40 6 14 15 32 20 40 6 8 15 26 20 40 6 14 15 32 20 40 6 8 16 26 23 40 13 26 82 131 142 215 50 70 90 113 309 335 167 169 297 320 424 493 18 25 43 56 55 69 13 12 59 66 104 118 113 133 351 355 528 492 33 26 68 55 79 64 77 68 550 397 660 457 38 22 61 35 141 82 44 26 366 188 405 205 14 5 32 14 40 19 22 14 101 48 130 56 14 4 31 12 39 18 7 6 27 17 45 23 132 50 176 67 211 79 22 7 72 25 110 40 39 14 90 32 115 40 48 14 126 39 175 56 46 16 163 48 230 64 33 7 74 19 90 26 17 7 55 15 85 19 103 14 380 73 380 81 0 3 14 3 32 1 32 -5 216 26 231 38 5 4 38 5 75 3 37 -3 115 2 173 11 59 9 136 16 173 16 37 0 66 4 66 10 0 7 140 10 400 10 260 0 400 -3 400 -10z"></path></g></g><g id="l4QJcFwYp2mCmnilIF9C1Bj" fill="#dbc078" style="transform: none;"><g style="transform: none;"><path id="p7jIFmsmb" d="M7840 13800 c0 -5 -24 -10 -52 -10 -29 0 -98 -7 -153 -15 -63 -10 -125 -13 -167 -9 -36 3 -72 3 -80 -2 -26 -17 -178 -42 -219 -37 -22 3 -44 2 -48 -3 -10 -14 -148 -46 -170 -39 -11 3 -28 2 -38 -4 -35 -18 -144 -41 -168 -35 -16 4 -42 -2 -72 -17 -26 -12 -62 -23 -80 -23 -18 -1 -33 -4 -33 -8 0 -5 -7 -8 -15 -8 -14 0 -121 -31 -180 -52 -16 -6 -39 -12 -50 -13 -11 -1 -29 -6 -40 -10 -22 -8 -101 -36 -155 -55 -19 -7 -44 -13 -55 -14 -11 0 -22 -4 -25 -7 -5 -6 -78 -35 -177 -70 -32 -12 -77 -30 -101 -40 -23 -10 -49 -19 -56 -19 -7 0 -19 -6 -25 -14 -7 -8 -24 -17 -39 -21 -28 -6 -106 -39 -132 -56 -8 -5 -26 -14 -40 -19 -39 -17 -361 -179 -405 -205 -80 -47 -103 -60 -141 -82 -110 -60 -583 -389 -660 -457 -11 -9 -46 -38 -79 -64 -177 -137 -415 -359 -528 -492 -45 -52 -91 -106 -104 -118 -12 -13 -37 -44 -55 -69 -127 -173 -257 -324 -424 -493 -219 -222 -259 -265 -309 -335 -60 -84 -129 -189 -142 -215 -7 -14 -17 -32 -23 -40 -5 -8 -14 -26 -20 -40 -5 -14 -14 -32 -20 -40 -5 -8 -14 -26 -20 -40 -5 -14 -14 -32 -19 -40 -5 -8 -37 -73 -71 -145 -34 -71 -70 -148 -80 -170 -50 -105 -98 -214 -109 -247 -7 -21 -17 -40 -22 -43 -5 -4 -9 -14 -9 -23 0 -9 -7 -30 -16 -47 -9 -16 -31 -70 -50 -118 -19 -49 -39 -96 -43 -105 -5 -9 -21 -51 -36 -92 -15 -41 -33 -88 -40 -105 -28 -67 -55 -141 -55 -153 0 -7 -7 -27 -16 -44 -9 -17 -22 -51 -29 -77 -17 -60 -72 -222 -96 -285 -10 -27 -19 -57 -19 -68 0 -10 -7 -35 -16 -56 -9 -20 -20 -57 -24 -82 -5 -25 -15 -65 -23 -90 -23 -67 -47 -167 -57 -235 -5 -33 -16 -80 -24 -104 -9 -24 -16 -61 -16 -81 0 -21 -9 -76 -19 -122 -11 -46 -22 -121 -25 -168 -3 -47 -12 -121 -20 -165 -22 -119 -22 -997 0 -1180 9 -71 20 -202 25 -290 4 -88 13 -180 20 -205 6 -25 15 -97 19 -160 4 -63 13 -131 20 -150 6 -19 15 -74 20 -121 4 -47 15 -101 23 -120 9 -19 17 -61 19 -94 2 -33 12 -75 21 -94 9 -19 17 -50 17 -69 0 -40 20 -102 32 -102 4 0 8 -21 8 -47 0 -30 8 -60 20 -81 11 -18 20 -45 20 -61 0 -35 19 -91 31 -91 5 0 9 -16 9 -36 0 -35 14 -73 32 -85 5 -3 11 -23 12 -45 2 -21 4 -42 5 -46 1 -4 7 -13 15 -21 8 -7 16 -27 17 -43 2 -16 11 -41 21 -56 10 -14 18 -34 18 -43 0 -19 19 -57 33 -66 5 -4 9 -18 10 -32 0 -14 10 -37 23 -52 13 -16 24 -39 24 -52 0 -13 6 -26 14 -29 8 -3 18 -19 21 -36 4 -17 18 -46 31 -65 13 -20 24 -42 24 -49 0 -8 4 -14 9 -14 5 0 13 -10 17 -22 3 -13 13 -31 22 -41 8 -9 16 -26 17 -37 1 -11 9 -26 18 -33 10 -6 19 -23 22 -37 3 -14 10 -29 17 -35 22 -17 68 -90 68 -108 0 -9 4 -17 9 -17 13 0 71 -87 71 -106 0 -7 4 -14 9 -14 11 0 76 -87 76 -101 0 -6 5 -13 11 -17 16 -10 104 -120 104 -129 0 -5 9 -14 20 -21 11 -7 20 -19 20 -27 0 -8 9 -19 20 -25 11 -6 20 -15 20 -21 0 -13 460 -473 509 -509 66 -50 174 -142 252 -215 9 -8 19 -15 24 -15 6 0 84 -63 192 -156 12 -11 34 -28 49 -39 16 -11 49 -38 74 -60 25 -22 61 -52 80 -68 109 -86 217 -174 232 -189 10 -10 21 -18 25 -18 5 0 20 -10 34 -23 15 -12 46 -38 69 -57 23 -19 50 -43 58 -52 9 -10 22 -18 29 -18 7 0 18 -9 25 -20 7 -11 16 -20 21 -20 4 0 36 -23 70 -50 34 -28 67 -55 74 -60 7 -6 24 -15 38 -22 14 -6 25 -15 25 -19 0 -4 26 -24 58 -45 31 -21 76 -51 98 -68 46 -34 55 -40 129 -88 28 -18 55 -36 60 -40 37 -29 115 -81 143 -95 17 -9 32 -20 32 -25 0 -4 6 -8 13 -8 7 0 37 -17 66 -37 71 -50 104 -69 241 -139 63 -32 117 -62 118 -66 2 -5 11 -8 19 -8 8 0 32 -8 52 -18 58 -30 121 -58 191 -87 36 -14 77 -33 92 -41 14 -8 36 -14 48 -14 12 0 33 -9 47 -20 14 -11 34 -20 45 -20 10 0 36 -9 58 -20 22 -11 48 -20 59 -20 11 0 40 -9 66 -20 26 -11 59 -20 73 -20 15 0 51 -9 80 -20 29 -11 64 -20 78 -20 15 0 61 -9 103 -19 134 -35 441 -61 696 -61 127 0 273 5 325 10 52 6 176 17 275 25 99 8 209 22 245 30 36 8 85 15 110 15 25 0 71 7 102 15 31 8 87 17 125 20 37 4 91 13 118 20 28 8 86 18 130 24 45 5 92 14 106 20 14 5 52 12 85 16 32 4 79 13 104 20 25 8 65 16 90 20 25 4 67 13 93 22 26 8 71 19 100 23 60 10 141 30 352 85 33 9 87 22 120 30 33 7 78 20 100 29 22 8 49 15 59 16 11 0 49 9 85 21 36 11 93 28 126 38 187 56 329 102 420 136 39 15 88 33 110 40 22 7 54 20 70 29 17 9 37 16 45 16 9 0 24 6 35 14 11 7 31 17 45 21 49 15 481 235 580 295 8 5 35 21 60 36 151 91 375 250 516 368 34 28 84 69 110 91 118 97 341 316 475 465 91 102 349 423 401 500 21 30 55 80 76 110 51 73 153 226 180 270 26 43 90 150 117 196 107 183 171 295 216 379 29 55 57 103 63 107 6 4 8 8 4 8 -4 0 16 44 44 98 27 53 124 243 215 422 91 179 172 332 179 341 8 9 11 18 8 22 -3 3 4 20 16 36 12 17 19 31 16 31 -3 0 13 37 36 83 23 45 43 87 44 92 1 6 21 51 44 100 23 50 57 122 75 162 19 39 39 74 45 78 5 3 8 10 5 15 -4 7 9 44 50 135 7 17 21 49 31 73 10 24 24 42 33 42 12 0 13 2 3 9 -11 7 -11 15 3 47 8 21 23 45 33 52 12 9 14 15 5 20 -15 9 19 92 38 92 7 0 10 12 6 33 -5 34 16 87 35 87 7 0 9 13 5 35 -6 38 16 105 34 105 8 0 9 13 5 39 -6 43 8 99 31 118 11 8 14 24 10 55 -6 56 11 128 30 128 13 0 14 13 10 78 -5 92 11 212 30 212 19 0 18 756 -1 763 -19 8 -31 111 -27 235 3 86 1 102 -12 102 -20 0 -32 65 -28 153 2 52 0 67 -11 67 -19 0 -36 74 -31 128 3 27 1 42 -6 42 -19 0 -34 52 -32 113 1 43 -2 57 -13 57 -18 0 -30 44 -27 98 2 32 -1 42 -12 42 -18 0 -31 42 -28 88 2 17 -2 32 -8 32 -18 0 -39 53 -35 88 2 17 -1 32 -6 32 -14 0 -37 51 -34 78 0 12 -2 22 -6 22 -10 0 -31 50 -35 82 -2 15 -12 39 -22 54 -10 15 -18 32 -19 38 0 6 -2 19 -2 28 -1 9 -10 24 -19 33 -9 10 -17 25 -18 34 0 9 -4 22 -9 29 -4 6 -4 12 0 12 4 0 -1 9 -11 20 -10 11 -20 31 -21 45 -1 13 -12 34 -23 46 -11 12 -18 26 -15 31 3 4 -5 25 -18 46 -23 37 -25 41 -27 66 0 8 -9 22 -18 32 -9 9 -18 26 -18 37 -1 12 -7 23 -14 25 -6 2 -9 8 -5 13 3 5 1 9 -5 9 -5 0 -12 14 -16 30 -4 17 -11 30 -17 30 -6 0 -8 3 -5 6 4 4 -3 20 -14 36 -12 16 -22 35 -23 43 -1 8 -14 33 -29 56 -15 22 -27 44 -27 49 0 4 -10 20 -22 36 -12 15 -23 35 -25 43 -1 9 -9 21 -18 27 -14 11 -21 26 -24 56 -1 4 -7 13 -13 20 -24 26 -55 74 -62 96 -4 12 -13 28 -19 34 -19 20 -51 70 -64 101 -7 15 -16 27 -21 27 -6 0 -13 12 -17 27 -5 23 -18 42 -65 100 -6 7 -10 16 -10 22 0 9 -15 29 -67 88 -13 14 -23 32 -23 39 0 8 -5 14 -11 14 -5 0 -8 4 -5 8 3 5 -9 24 -27 43 -17 19 -31 37 -30 40 1 4 -7 15 -17 24 -11 10 -20 23 -20 29 0 6 -10 23 -23 38 -43 52 -52 64 -65 89 -12 23 -54 75 -95 119 -8 8 -17 24 -21 35 -3 11 -23 39 -44 62 -60 67 -72 83 -72 93 0 5 -8 14 -17 19 -10 6 -13 11 -8 11 7 0 6 3 0 8 -12 8 -51 56 -80 97 -11 15 -27 36 -36 45 -9 10 -21 25 -25 33 -10 16 -68 87 -96 118 -10 11 -18 23 -18 28 0 9 -50 69 -100 121 -14 14 -25 29 -25 33 0 5 -8 14 -17 21 -10 7 -18 18 -18 24 0 10 -45 64 -97 119 -13 13 -23 28 -23 33 0 6 -9 15 -20 22 -11 7 -20 17 -20 23 0 5 -10 22 -23 36 -12 14 -42 50 -67 79 -25 29 -53 60 -62 69 -10 8 -18 21 -18 28 0 7 -4 13 -10 13 -5 0 -16 14 -25 30 -9 17 -60 75 -115 131 -55 55 -100 105 -100 110 0 5 -4 9 -9 9 -5 0 -34 24 -63 53 -29 29 -80 72 -113 96 -33 24 -64 49 -70 55 -22 24 -122 97 -155 113 -8 4 -26 17 -40 30 -24 23 -93 66 -173 110 -22 12 -43 25 -46 30 -3 5 -37 25 -76 44 -38 19 -79 40 -90 47 -39 22 -196 92 -206 92 -6 0 -23 7 -37 15 -15 8 -45 21 -67 29 -22 8 -56 20 -75 27 -19 7 -60 21 -90 32 -30 11 -71 25 -90 32 -58 22 -133 46 -175 57 -22 6 -61 19 -87 29 -26 11 -57 19 -71 19 -13 0 -45 11 -70 24 -29 14 -57 21 -73 18 -30 -5 -144 27 -144 41 0 6 -17 7 -42 3 -45 -7 -188 21 -188 37 0 5 -21 6 -49 2 -53 -7 -211 21 -211 38 0 6 -25 7 -66 3 -69 -7 -233 18 -246 37 -4 6 -47 7 -115 3 -72 -4 -155 -2 -252 9 -79 8 -163 15 -187 15 -24 0 -44 5 -44 10 0 16 -857 14 -863 -2 -4 -10 -6 -10 -6 0 -1 14 -21 17 -21 2z"></path></g></g></svg>